<?xml version="1.0" encoding="utf-8"?>
<!-- Generator: Adobe Illustrator 16.0.0, SVG Export Plug-In . SVG Version: 6.00 Build 0)  -->
<!DOCTYPE svg PUBLIC "-//W3C//DTD SVG 1.1//EN" "http://www.w3.org/Graphics/SVG/1.1/DTD/svg11.dtd">
<svg version="1.1" xmlns="http://www.w3.org/2000/svg" xmlns:xlink="http://www.w3.org/1999/xlink" x="0px" y="0px" width="188px"
	 height="52.888px" viewBox="0 0 188 52.888" enable-background="new 0 0 188 52.888" xml:space="preserve">
<g id="Calque_1" display="none">
	<g display="inline">
		<g>
			<path fill="#666666" d="M0.218,52.75l3.263-9.212h1.147l3.263,9.212H6.757l-0.909-2.628H2.186L1.277,52.75H0.218z M2.522,49.168
				h2.989l-1.47-4.304H4.017L2.522,49.168z"/>
			<path fill="#666666" d="M8.327,51.76l0.648-0.646c0.498,0.534,1.158,0.905,2.055,0.905c1.021,0,1.582-0.359,1.582-1.029
				c0-0.656-0.573-0.905-1.693-1.164c-1.396-0.335-2.354-0.708-2.354-1.972c0-0.993,0.872-1.787,2.304-1.787
				c1.159,0,1.906,0.373,2.517,0.943l-0.562,0.706c-0.498-0.459-1.17-0.78-1.905-0.78c-0.959,0-1.333,0.422-1.333,0.879
				c0,0.609,0.523,0.832,1.558,1.068c1.482,0.358,2.503,0.719,2.503,2.07c0,1.253-1.134,1.921-2.628,1.921
				C9.834,52.874,8.862,52.403,8.327,51.76z"/>
			<path fill="#666666" d="M14.581,51.76l0.648-0.646c0.498,0.534,1.158,0.905,2.055,0.905c1.021,0,1.582-0.359,1.582-1.029
				c0-0.656-0.573-0.905-1.694-1.164c-1.395-0.335-2.354-0.708-2.354-1.972c0-0.993,0.872-1.787,2.305-1.787
				c1.158,0,1.905,0.373,2.516,0.943l-0.561,0.706c-0.499-0.459-1.171-0.78-1.906-0.78c-0.958,0-1.332,0.422-1.332,0.879
				c0,0.609,0.522,0.832,1.556,1.068c1.483,0.358,2.504,0.719,2.504,2.07c0,1.253-1.134,1.921-2.629,1.921
				C16.088,52.874,15.116,52.403,14.581,51.76z"/>
			<path fill="#666666" d="M21.37,50.928v-4.724h1.071v4.5c0,0.868,0.375,1.278,1.208,1.278c0.797,0,1.446-0.41,2.13-1.055v-4.724
				h1.084v6.546h-1.084v-0.979c-0.572,0.559-1.395,1.103-2.466,1.103C22.054,52.874,21.37,52.167,21.37,50.928z"/>
			<path fill="#666666" d="M28.757,52.75v-6.546h1.071v1.214h0.024c0.486-0.755,1.259-1.352,2.542-1.352h0.137l-0.075,0.993
				c-0.037-0.013-0.273-0.013-0.311-0.013c-1.047,0-1.832,0.545-2.317,1.476v4.228H28.757z"/>
			<path fill="#666666" d="M33.104,51.201c0-1.327,1.135-2.27,4.398-2.728v-0.298c0-0.818-0.437-1.216-1.246-1.216
				c-0.996,0-1.731,0.435-2.379,0.992l-0.562-0.669c0.761-0.693,1.745-1.217,3.053-1.217c1.569,0,2.192,0.819,2.192,2.184v2.89
				c0,0.793,0.05,1.275,0.188,1.61h-1.097c-0.088-0.272-0.149-0.532-0.149-0.905c-0.734,0.683-1.557,1.005-2.542,1.005
				C33.827,52.85,33.104,52.255,33.104,51.201z M37.502,51.052v-1.835c-2.505,0.397-3.339,1.005-3.339,1.822
				c0,0.633,0.423,0.967,1.109,0.967C36.145,52.006,36.892,51.647,37.502,51.052z"/>
			<path fill="#666666" d="M40.393,52.75v-6.546h1.084v0.979c0.572-0.558,1.395-1.117,2.466-1.117c1.258,0,1.943,0.721,1.943,1.96
				v4.724h-1.071v-4.487c0-0.868-0.374-1.277-1.208-1.277c-0.785,0-1.445,0.409-2.13,1.054v4.711H40.393z"/>
			<path fill="#666666" d="M47.343,49.478c0-2.395,1.545-3.411,3.015-3.411c1.481,0,2.179,0.869,2.578,1.837l-0.909,0.37
				c-0.325-0.843-0.834-1.302-1.694-1.302c-0.945,0-1.905,0.658-1.905,2.506c0,1.612,0.772,2.518,1.88,2.518
				c0.835,0,1.346-0.359,1.771-1.314l0.883,0.347c-0.511,1.091-1.27,1.86-2.689,1.86C48.751,52.888,47.343,51.721,47.343,49.478z"/>
			<path fill="#666666" d="M53.908,49.478c0-2.38,1.593-3.411,2.977-3.411c1.557,0,2.739,1.093,2.739,3.46v0.223h-4.645
				c0.037,1.476,0.896,2.27,1.98,2.27c0.945,0,1.481-0.383,1.979-1.065l0.623,0.545c-0.61,0.868-1.445,1.39-2.678,1.39
				C55.328,52.888,53.908,51.76,53.908,49.478z M58.604,48.92c-0.088-1.166-0.647-1.96-1.731-1.96c-0.885,0-1.718,0.608-1.869,1.96
				H58.604z"/>
			<path fill="#666666" d="M63.698,49.478c0-2.38,1.596-3.411,2.977-3.411c1.559,0,2.741,1.093,2.741,3.46v0.223h-4.646
				c0.037,1.476,0.897,2.27,1.98,2.27c0.946,0,1.482-0.383,1.98-1.065l0.623,0.545c-0.611,0.868-1.444,1.39-2.68,1.39
				C65.119,52.888,63.698,51.76,63.698,49.478z M68.395,48.92c-0.086-1.166-0.646-1.96-1.73-1.96c-0.886,0-1.719,0.608-1.869,1.96
				H68.395z"/>
			<path fill="#666666" d="M71.424,51.163v-4.08h-1.148v-0.879h1.148v-2.33h1.069v2.33h1.706v0.879h-1.706v3.845
				c0,0.694,0.225,1.041,1.021,1.041c0.236,0,0.499-0.036,0.672-0.085v0.879c-0.186,0.037-0.596,0.075-0.933,0.075
				C71.871,52.838,71.424,52.304,71.424,51.163z"/>
			<path fill="#666666" d="M78.087,51.76l0.647-0.646c0.498,0.534,1.159,0.905,2.055,0.905c1.022,0,1.583-0.359,1.583-1.029
				c0-0.656-0.573-0.905-1.694-1.164c-1.396-0.335-2.354-0.708-2.354-1.972c0-0.993,0.872-1.787,2.306-1.787
				c1.157,0,1.904,0.373,2.515,0.943l-0.56,0.706c-0.499-0.459-1.172-0.78-1.906-0.78c-0.959,0-1.333,0.422-1.333,0.879
				c0,0.609,0.523,0.832,1.558,1.068c1.48,0.358,2.503,0.719,2.503,2.07c0,1.253-1.135,1.921-2.628,1.921
				C79.594,52.874,78.622,52.403,78.087,51.76z"/>
			<path fill="#666666" d="M84.452,49.478c0-2.38,1.595-3.411,2.977-3.411c1.56,0,2.742,1.093,2.742,3.46v0.223h-4.646
				c0.038,1.476,0.897,2.27,1.981,2.27c0.945,0,1.482-0.383,1.98-1.065l0.62,0.545c-0.608,0.868-1.444,1.39-2.678,1.39
				C85.872,52.888,84.452,51.76,84.452,49.478z M89.149,48.92c-0.088-1.166-0.649-1.96-1.732-1.96c-0.884,0-1.72,0.608-1.868,1.96
				H89.149z"/>
			<path fill="#666666" d="M91.703,52.75v-6.546h1.071v1.214h0.023c0.488-0.755,1.259-1.352,2.543-1.352h0.136l-0.073,0.993
				c-0.039-0.013-0.275-0.013-0.312-0.013c-1.047,0-1.832,0.545-2.317,1.476v4.228H91.703z"/>
			<path fill="#666666" d="M98.468,52.776l-2.415-6.572h1.145l1.844,5.306h0.023l1.818-5.306h1.071l-2.402,6.572H98.468z"/>
			<path fill="#666666" d="M103.214,44.803v-1.04h1.12v1.04H103.214z M103.238,52.75v-6.546h1.071v6.546H103.238z"/>
			<path fill="#666666" d="M105.905,49.478c0-2.395,1.543-3.411,3.015-3.411c1.481,0,2.179,0.869,2.577,1.837l-0.91,0.37
				c-0.322-0.843-0.833-1.302-1.693-1.302c-0.946,0-1.905,0.658-1.905,2.506c0,1.612,0.772,2.518,1.88,2.518
				c0.836,0,1.347-0.359,1.77-1.314l0.885,0.347c-0.511,1.091-1.271,1.86-2.691,1.86C107.312,52.888,105.905,51.721,105.905,49.478z
				"/>
			<path fill="#666666" d="M112.468,49.478c0-2.38,1.596-3.411,2.979-3.411c1.556,0,2.74,1.093,2.74,3.46v0.223h-4.647
				c0.039,1.476,0.897,2.27,1.981,2.27c0.948,0,1.481-0.383,1.98-1.065l0.623,0.545c-0.61,0.868-1.445,1.39-2.678,1.39
				C113.889,52.888,112.468,51.76,112.468,49.478z M117.165,48.92c-0.087-1.166-0.647-1.96-1.73-1.96
				c-0.886,0-1.721,0.608-1.869,1.96H117.165z"/>
			<path fill="#666666" d="M119.121,51.76l0.648-0.646c0.498,0.534,1.157,0.905,2.055,0.905c1.021,0,1.581-0.359,1.581-1.029
				c0-0.656-0.571-0.905-1.694-1.164c-1.394-0.335-2.353-0.708-2.353-1.972c0-0.993,0.871-1.787,2.304-1.787
				c1.16,0,1.907,0.373,2.518,0.943l-0.562,0.706c-0.498-0.459-1.171-0.78-1.907-0.78c-0.958,0-1.331,0.422-1.331,0.879
				c0,0.609,0.523,0.832,1.557,1.068c1.481,0.358,2.503,0.719,2.503,2.07c0,1.253-1.133,1.921-2.627,1.921
				C120.628,52.874,119.657,52.403,119.121,51.76z"/>
			<path fill="#666666" d="M129.397,52.75v-5.667h-1.146v-0.879h1.146v-0.881c0-1.104,0.61-1.773,1.895-1.773
				c0.198,0,0.484,0.039,0.598,0.039v0.866c-0.113-0.025-0.299-0.025-0.436-0.025c-0.599,0-0.985,0.273-0.985,0.919v0.855h1.371
				v0.879h-1.371v5.667H129.397z M133.111,44.84v-1.077h1.095v1.077H133.111z M133.123,52.75v-6.546h1.071v6.546H133.123z"/>
			<path fill="#666666" d="M136.249,52.75v-6.546h1.084v0.979c0.573-0.558,1.396-1.117,2.466-1.117c1.258,0,1.945,0.721,1.945,1.96
				v4.724h-1.072v-4.487c0-0.868-0.374-1.277-1.21-1.277c-0.782,0-1.443,0.409-2.129,1.054v4.711H136.249z"/>
			<path fill="#666666" d="M143.176,51.201c0-1.327,1.133-2.27,4.398-2.728v-0.298c0-0.818-0.437-1.216-1.245-1.216
				c-0.998,0-1.733,0.435-2.38,0.992l-0.561-0.669c0.759-0.693,1.744-1.217,3.052-1.217c1.568,0,2.191,0.819,2.191,2.184v2.89
				c0,0.793,0.05,1.275,0.187,1.61h-1.096c-0.086-0.272-0.148-0.532-0.148-0.905c-0.735,0.683-1.559,1.005-2.542,1.005
				C143.899,52.85,143.176,52.255,143.176,51.201z M147.574,51.052v-1.835c-2.504,0.397-3.338,1.005-3.338,1.822
				c0,0.633,0.422,0.967,1.106,0.967C146.216,52.006,146.963,51.647,147.574,51.052z"/>
			<path fill="#666666" d="M150.463,52.75v-6.546h1.084v0.979c0.572-0.558,1.395-1.117,2.468-1.117c1.257,0,1.941,0.721,1.941,1.96
				v4.724h-1.071v-4.487c0-0.868-0.374-1.277-1.207-1.277c-0.785,0-1.446,0.409-2.131,1.054v4.711H150.463z"/>
			<path fill="#666666" d="M157.415,49.478c0-2.395,1.543-3.411,3.014-3.411c1.482,0,2.181,0.869,2.578,1.837l-0.909,0.37
				c-0.323-0.843-0.836-1.302-1.694-1.302c-0.945,0-1.904,0.658-1.904,2.506c0,1.612,0.771,2.518,1.88,2.518
				c0.836,0,1.347-0.359,1.769-1.314l0.884,0.347c-0.509,1.091-1.27,1.86-2.689,1.86C158.823,52.888,157.415,51.721,157.415,49.478z
				"/>
			<path fill="#666666" d="M164.516,44.803v-1.04h1.121v1.04H164.516z M164.54,52.75v-6.546h1.071v6.546H164.54z"/>
			<path fill="#666666" d="M167.206,49.478c0-2.38,1.594-3.411,2.979-3.411c1.556,0,2.74,1.093,2.74,3.46v0.223h-4.647
				c0.038,1.476,0.897,2.27,1.979,2.27c0.949,0,1.483-0.383,1.983-1.065l0.622,0.545c-0.611,0.868-1.445,1.39-2.678,1.39
				C168.626,52.888,167.206,51.76,167.206,49.478z M171.903,48.92c-0.088-1.166-0.649-1.96-1.732-1.96
				c-0.884,0-1.72,0.608-1.868,1.96H171.903z"/>
			<path fill="#666666" d="M174.456,52.75v-6.546h1.072v1.214h0.023c0.487-0.755,1.259-1.352,2.542-1.352h0.137l-0.075,0.993
				c-0.037-0.013-0.273-0.013-0.311-0.013c-1.047,0-1.832,0.545-2.316,1.476v4.228H174.456z"/>
			<path fill="#666666" d="M178.778,51.76l0.647-0.646c0.498,0.534,1.158,0.905,2.055,0.905c1.022,0,1.583-0.359,1.583-1.029
				c0-0.656-0.573-0.905-1.695-1.164c-1.394-0.335-2.354-0.708-2.354-1.972c0-0.993,0.872-1.787,2.304-1.787
				c1.159,0,1.907,0.373,2.517,0.943l-0.56,0.706c-0.498-0.459-1.171-0.78-1.907-0.78c-0.959,0-1.332,0.422-1.332,0.879
				c0,0.609,0.523,0.832,1.557,1.068c1.482,0.358,2.504,0.719,2.504,2.07c0,1.253-1.134,1.921-2.627,1.921
				C180.285,52.874,179.314,52.403,178.778,51.76z"/>
		</g>
		<g>
			<path fill="#85BAE1" d="M165.362,11.531c0.07,0.096,0.139,0.195,0.205,0.295l0,0c-0.06-0.091-0.121-0.179-0.186-0.268
				C165.377,11.549,165.369,11.541,165.362,11.531c-0.396-0.536-0.76-1.101-0.76-1.819c0-1.785,1.454-3.231,3.245-3.231
				c1.795,0,3.247,1.446,3.247,3.231c0,0.718-0.363,1.283-0.761,1.819c-0.004,0.01-0.012,0.019-0.019,0.027l0,0
				c1.17-1.622,2.852-2.903,4.91-3.568c0.708-0.23,1.426-0.373,2.138-0.438C176.377,3.228,172.493,0,167.848,0
				c-4.64,0-8.526,3.228-9.515,7.552c0.717,0.065,1.432,0.208,2.142,0.438C162.517,8.65,164.193,9.921,165.362,11.531z"/>
			<path fill="#FF88A4" d="M187.519,14.224c-1.434-4.395-5.72-7.075-10.155-6.671c0.158,0.694,0.246,1.417,0.246,2.16
				c0,2.14-0.697,4.116-1.874,5.72c0.388-0.537,0.818-1.057,1.5-1.276c1.706-0.552,3.539,0.376,4.09,2.073
				c0.558,1.697-0.376,3.522-2.083,4.073c-0.683,0.22-1.337,0.05-1.975-0.155c-0.018-0.01-0.042-0.015-0.061-0.021
				c0,0-0.004,0-0.005-0.004c1.922,0.604,3.684,1.802,4.964,3.556c0.437,0.601,0.794,1.235,1.08,1.89
				C187.071,23.296,188.956,18.619,187.519,14.224z"/>
			<path fill="#FFB000" d="M175.231,26.467c0.631,0.202,1.247,0.444,1.663,1.021c1.058,1.443,0.737,3.462-0.718,4.512
				c-1.448,1.049-3.478,0.732-4.531-0.716c-0.424-0.579-0.464-1.249-0.46-1.913c0-0.021,0-0.04,0-0.062
				c0.018,2.009-0.587,4.037-1.862,5.786c-0.441,0.601-0.938,1.139-1.476,1.607c3.353,2.916,8.401,3.257,12.158,0.541
				c3.754-2.716,4.993-7.601,3.24-11.675c-0.616,0.364-1.284,0.666-1.993,0.896C179.217,27.123,177.122,27.08,175.231,26.467z"/>
			<path fill="#B9D300" d="M166.378,35.095c-1.266-1.732-1.87-3.737-1.862-5.725c0-0.049,0-0.095,0-0.145c0,0,0,0.001,0,0.003
				c0,0.021,0,0.048,0,0.072s0,0.044,0,0.069c0.003,0.664-0.036,1.334-0.461,1.913c-1.055,1.448-3.083,1.765-4.534,0.716
				c-1.45-1.05-1.772-3.068-0.717-4.512c0.396-0.545,0.968-0.794,1.565-0.987c-1.866,0.58-3.922,0.613-5.925-0.033
				c-0.706-0.232-1.378-0.534-1.99-0.898c-1.757,4.074-0.517,8.961,3.238,11.675c3.76,2.716,8.804,2.375,12.155-0.541
				C167.312,36.233,166.815,35.695,166.378,35.095z"/>
			<path fill="#FFD300" d="M158.43,20.146c0.048-0.02,0.096-0.035,0.152-0.051c-0.007,0.002-0.016,0.003-0.019,0.003
				c-0.024,0.013-0.048,0.02-0.073,0.028C158.47,20.132,158.45,20.137,158.43,20.146c-0.635,0.205-1.287,0.375-1.976,0.155
				c-1.703-0.551-2.636-2.376-2.083-4.073c0.555-1.697,2.389-2.625,4.092-2.073c0.683,0.22,1.114,0.739,1.503,1.282
				c0.004,0.006,0.01,0.015,0.014,0.021c-1.184-1.611-1.889-3.597-1.889-5.747c0-0.743,0.087-1.466,0.242-2.16
				c-4.433-0.403-8.721,2.276-10.153,6.671c-1.437,4.396,0.448,9.072,4.274,11.343c0.282-0.654,0.642-1.289,1.08-1.89
				C154.799,21.944,156.526,20.75,158.43,20.146z"/>
			<path fill="#7F659B" d="M175.733,15.438c1.179-1.607,1.876-3.582,1.876-5.726c0-0.743-0.088-1.466-0.246-2.16
				c-0.712,0.065-1.43,0.208-2.138,0.438c-2.562,0.828-4.547,2.613-5.678,4.827c-0.817,1.595-0.182,3.547,1.424,4.362
				c1.305,0.659,2.843,0.364,3.815-0.636C175.131,16.197,175.446,15.828,175.733,15.438z"/>
			<path fill="#EB6C0B" d="M175.208,26.46c1.899,0.62,4.002,0.664,6.045,0.005c0.709-0.23,1.379-0.532,1.993-0.896
				c-0.286-0.656-0.644-1.291-1.08-1.892c-1.582-2.171-3.901-3.493-6.37-3.884c-1.777-0.278-3.441,0.925-3.723,2.692
				c-0.23,1.44,0.533,2.811,1.785,3.419C174.294,26.124,174.748,26.308,175.208,26.46z"/>
			<path fill="#B77E0D" d="M164.516,29.37c-0.008,1.987,0.597,3.992,1.862,5.725c0.438,0.601,0.934,1.139,1.47,1.607
				c0.537-0.469,1.034-1.007,1.476-1.607c1.583-2.172,2.134-4.772,1.74-7.229c-0.279-1.767-1.947-2.972-3.725-2.694
				c-1.444,0.228-2.52,1.374-2.714,2.748C164.55,28.396,164.516,28.883,164.516,29.37z"/>
			<path fill="#88911A" d="M158.43,20.146c-1.903,0.604-3.631,1.798-4.896,3.53c-0.438,0.601-0.798,1.235-1.08,1.89
				c0.612,0.366,1.284,0.668,1.99,0.9c2.56,0.826,5.222,0.545,7.445-0.584c1.603-0.814,2.236-2.767,1.424-4.359
				c-0.662-1.297-2.092-1.962-3.463-1.721C159.366,19.879,158.89,19.994,158.43,20.146z"/>
			<path fill="#31A5A8" d="M165.362,11.531c-1.169-1.609-2.846-2.881-4.888-3.541c-0.71-0.23-1.425-0.373-2.142-0.438
				c-0.155,0.694-0.242,1.417-0.242,2.16c0,2.685,1.095,5.112,2.856,6.868c1.275,1.265,3.335,1.265,4.606,0
				c1.034-1.028,1.224-2.586,0.573-3.81C165.904,12.339,165.649,11.926,165.362,11.531z"/>
		</g>
		<g>
			<path fill="#666666" d="M5.908,9.402c0,0,0.01,4.655,0.01,4.631v13.126c0,1.214,0.01,2.415,0.031,3.596h7.643l2.115-4.35
				l0.594-0.093l-0.357,5.731l-0.096,0.113c-2.782,0-5.24,0-7.6,0H4.211H0.068L0,31.598l2.044-0.61
				c0.272-0.074,0.425-0.24,0.445-0.508c0.01-0.453,0.019-0.955,0.024-1.514c0.005-0.553,0.007-1.172,0.007-1.843v-13.09
				c0-0.588-0.001-1.115-0.007-1.589c-0.005-0.472-0.014-0.896-0.024-1.278c-0.012-0.3-0.142-0.467-0.397-0.559l-1.987-0.592
				L0.02,9.402H5.908z"/>
			<path fill="#666666" d="M94.079,10.914c0,0.579-0.191,1.053-0.576,1.419c-0.382,0.369-0.873,0.551-1.476,0.551
				c-0.581,0-1.052-0.169-1.42-0.508c-0.366-0.34-0.547-0.788-0.547-1.346c0-0.593,0.188-1.057,0.572-1.404
				c0.38-0.345,0.887-0.519,1.517-0.519c0.566,0,1.03,0.159,1.392,0.469C93.902,9.885,94.079,10.335,94.079,10.914z M93.891,21.351
				c0-1.709,0.031-3.271,0.103-4.696l-0.152-0.115c-1.666,0.407-3.54,0.804-5.487,1.168l0.052,0.414l2.198,0.629
				c0.043,1.247,0.068,2.61,0.068,4.083v5.484c0,1.049-0.008,3.84-0.008,3.84h5.613l-0.03-0.537l-1.91-0.557
				c-0.251-0.088-0.393-0.272-0.415-0.575c-0.02-0.52-0.031-1.457-0.031-2.81V21.351z"/>
			<path fill="#666666" d="M124.617,19.751c0-4.12-0.019-7.423-0.062-9.916l-2.229-0.655l-0.072-0.433
				c1.971-0.373,3.87-0.774,5.536-1.182l0.148,0.134c-0.065,1.785-0.096,4.275-0.096,7.448v10.526c0,1.993,0.008,3.598,0.03,4.813
				c0.035,0.322,0.188,0.512,0.46,0.592l1.769,0.533l0.071,0.544h-5.557c0,0,0.001-4.273,0.001-5.828V19.751z"/>
			<path fill="#666666" d="M32.796,31.253c-0.51-0.012-0.919-0.055-1.22-0.13c-0.304-0.072-0.53-0.208-0.685-0.395
				c-0.148-0.189-0.245-0.463-0.278-0.819c-0.036-0.354-0.049-0.827-0.041-1.412l0.085-6.83c0.013-1.65-0.469-2.917-1.439-3.793
				c-0.97-0.872-2.289-1.312-3.961-1.312c-1.607,0-3.414,0.449-5.505,1.38l0.21,0.902c1.495-0.289,2.787-0.445,3.781-0.445
				c1.247,0,2.171,0.308,2.774,0.914c0.601,0.605,0.896,1.539,0.89,2.798l-0.022,0.649c-3.137,0-5.442,0.427-6.911,1.279
				c-1.469,0.854-2.204,2.182-2.204,3.981c0,1.465,0.47,2.593,1.398,3.396c0.932,0.802,2.164,1.2,3.698,1.2
				c1.315,0,2.717-0.55,4.205-1.656c0.396,1.092,1.131,1.641,2.199,1.641c0.239,0,0.697-0.092,1.376-0.278
				c0.679-0.185,1.248-0.371,1.717-0.559L32.796,31.253z M27.353,30.132c-0.754,0.469-1.632,0.63-2.639,0.63
				c-0.89,0-1.598-0.245-2.115-0.739c-0.516-0.495-0.774-1.335-0.774-2.521c0-1.257,0.392-2.152,1.173-2.682
				c0.779-0.53,2.248-0.795,4.386-0.795L27.353,30.132z"/>
			<path fill="#666666" d="M70.728,31.253c-0.509-0.012-0.916-0.055-1.219-0.13c-0.304-0.072-0.528-0.208-0.68-0.395
				c-0.151-0.189-0.244-0.463-0.283-0.819c-0.035-0.354-0.048-0.827-0.039-1.412l0.085-6.83c0.01-1.65-0.47-2.917-1.442-3.793
				c-0.97-0.872-2.289-1.312-3.959-1.312c-1.609,0-3.413,0.449-5.505,1.38l0.212,0.902c1.495-0.289,2.787-0.445,3.779-0.445
				c1.246,0,2.17,0.308,2.771,0.914c0.604,0.605,0.899,1.539,0.887,2.798l-0.017,0.649c-3.137,0-5.439,0.427-6.908,1.279
				c-1.468,0.854-2.204,2.182-2.204,3.981c0,1.465,0.467,2.593,1.396,3.396c0.932,0.802,2.166,1.2,3.698,1.2
				c1.315,0,2.716-0.55,4.204-1.656c0.396,1.092,1.127,1.641,2.196,1.641c0.242,0,0.7-0.092,1.377-0.278
				c0.682-0.185,1.25-0.371,1.72-0.559L70.728,31.253z M65.285,30.132c-0.75,0.469-1.633,0.63-2.638,0.63
				c-0.89,0-1.595-0.245-2.112-0.739c-0.52-0.495-0.78-1.335-0.78-2.521c0-1.257,0.394-2.152,1.173-2.682
				c0.787-0.53,2.247-0.795,4.39-0.795L65.285,30.132z"/>
			<path fill="#666666" d="M122.639,31.253c-0.516-0.012-0.921-0.055-1.222-0.13c-0.304-0.072-0.531-0.208-0.685-0.395
				c-0.148-0.189-0.242-0.463-0.278-0.819c-0.037-0.354-0.052-0.827-0.041-1.412l0.086-6.83c0.01-1.65-0.469-2.917-1.44-3.793
				c-0.968-0.872-2.29-1.312-3.964-1.312c-1.607,0-3.411,0.449-5.503,1.38l0.214,0.902c1.493-0.289,2.787-0.445,3.776-0.445
				c1.246,0,2.173,0.308,2.773,0.914c0.602,0.605,0.9,1.539,0.886,2.798l-0.015,0.649c-3.138,0-5.445,0.427-6.91,1.279
				c-1.469,0.854-2.203,2.182-2.203,3.981c0,1.465,0.464,2.593,1.396,3.396c0.933,0.802,2.163,1.2,3.691,1.2
				c1.321,0,2.725-0.55,4.21-1.656c0.396,1.092,1.128,1.641,2.195,1.641c0.243,0,0.703-0.092,1.378-0.278
				c0.681-0.185,1.252-0.371,1.721-0.559L122.639,31.253z M117.19,30.132c-0.75,0.469-1.63,0.63-2.634,0.63
				c-0.893,0-1.597-0.245-2.114-0.739c-0.521-0.495-0.781-1.335-0.781-2.521c0-1.257,0.395-2.152,1.178-2.682
				c0.783-0.53,2.246-0.795,4.388-0.795L117.19,30.132z"/>
			<path fill="#666666" d="M78.771,32.617c2.802,0,4.972-0.779,6.498-2.334c1.522-1.562,2.288-3.685,2.288-6.365
				c0-2.18-0.594-3.947-1.783-5.312c-1.187-1.364-2.791-2.043-4.814-2.043c-1.509,0-3.07,0.571-4.687,1.722v-1.607l-0.171-0.113
				l-5.388,1.147l0.059,0.448l2.212,0.627c0.046,1.296,0.067,4.395,0.067,9.303v6.6c0,1.682,0.003,5.374,0.003,5.374h5.898
				l-0.074-0.553l-2.126-0.595c-0.278-0.068-0.427-0.245-0.448-0.591c-0.021-0.465-0.032-1.272-0.032-2.434v-3.517
				C77.134,32.536,77.968,32.617,78.771,32.617z M76.272,19.271c0.858-0.547,1.84-0.822,2.945-0.822
				c1.543,0,2.729,0.519,3.554,1.555c0.825,1.032,1.237,2.569,1.237,4.603c0,2.146-0.432,3.797-1.304,4.944
				c-0.864,1.154-2.151,1.728-3.866,1.728c-0.824,0-1.679-0.125-2.566-0.382V19.271z"/>
			<path fill="#666666" d="M107.553,30.534l0.077,0.592c-1.891,0.951-3.579,1.426-5.065,1.426c-1.207,0-2.109-0.32-2.7-0.96
				c-0.589-0.64-0.889-1.605-0.889-2.896c0-2.178,0.042-5.614,0.119-10.316l-2.284-0.65l-0.069-0.543h2.528l1.188-3.974
				c0.644-0.163,1.328-0.323,1.855-0.477l0.159,0.115c-0.037,1.328-0.051,2.564-0.051,3.713v0.605h4.76v1.484h-4.76
				c-0.068,3.729-0.102,6.739-0.102,9.026c0,1.183,0.164,1.983,0.493,2.428c0.327,0.444,0.95,0.668,1.869,0.668
				C105.414,30.774,106.376,30.695,107.553,30.534z"/>
			<path fill="#666666" d="M144.282,22.797c0-1.948-0.537-3.473-1.611-4.578c-1.074-1.103-2.572-1.656-4.501-1.656
				c-2.293,0-4.123,0.771-5.495,2.316c-1.371,1.541-2.057,3.527-2.057,5.955c0,2.444,0.734,4.353,2.204,5.727
				c1.467,1.373,3.393,2.057,5.773,2.057c0.827,0,1.725-0.124,2.688-0.376c0.965-0.253,1.905-0.67,2.816-1.248l-0.075-0.562
				c-1.167,0.169-2.267,0.253-3.29,0.253c-2.258,0-3.922-0.538-4.977-1.616c-1.062-1.078-1.592-2.871-1.592-5.374h10.063
				C144.263,23.389,144.282,23.092,144.282,22.797z M140.727,22.396h-6.575c0.081-1.282,0.441-2.373,1.08-3.275
				c0.643-0.909,1.561-1.358,2.768-1.358c0.906,0,1.588,0.321,2.043,0.961c0.457,0.643,0.685,1.709,0.685,3.199V22.396z"/>
			<path fill="#666666" d="M54.868,30.008c-1.773,0.566-3.519,0.869-5.127,0.869c-2.985,0-5.325-0.951-7.015-2.86
				c-1.688-1.907-2.53-4.456-2.53-7.658c0-2.986,0.734-5.413,2.205-7.282c1.476-1.869,3.499-2.805,6.081-2.805
				c1.084,0,2.291,0.191,3.621,0.577l1.204,4.306l0.526-0.074l1.019-5.315l-0.111-0.132c-1.883-0.447-3.728-0.672-5.529-0.672
				c-3.8,0-6.887,1.085-9.256,3.262c-2.371,2.172-3.559,5.12-3.559,8.851c0,3.501,1.084,6.322,3.235,8.466
				c2.157,2.14,4.979,3.21,8.472,3.21c2.536,0,4.817-0.68,6.854-2.026L54.868,30.008z"/>
		</g>
	</g>
</g>
<g id="Calque_2">
	<g>
		<g>
			<path fill="#666666" d="M2.517,52.736v-8.998h1.07v8.998H2.517z"/>
			<path fill="#666666" d="M5.741,52.736v-6.42h1.058v0.959c0.559-0.547,1.362-1.094,2.408-1.094c1.228,0,1.896,0.705,1.896,1.922
				v4.633h-1.045v-4.402c0-0.852-0.365-1.252-1.18-1.252c-0.766,0-1.411,0.4-2.079,1.033v4.621H5.741z"/>
			<path fill="#666666" d="M12.432,51.764l0.632-0.633c0.486,0.523,1.131,0.887,2.007,0.887c0.997,0,1.544-0.352,1.544-1.008
				c0-0.645-0.56-0.889-1.653-1.143c-1.362-0.33-2.299-0.693-2.299-1.934c0-0.975,0.852-1.752,2.25-1.752
				c1.131,0,1.86,0.365,2.456,0.924l-0.547,0.693c-0.486-0.449-1.144-0.766-1.86-0.766c-0.937,0-1.302,0.412-1.302,0.863
				c0,0.596,0.511,0.814,1.521,1.045c1.447,0.354,2.443,0.705,2.443,2.031c0,1.229-1.106,1.885-2.565,1.885
				C13.903,52.857,12.955,52.395,12.432,51.764z"/>
			<path fill="#666666" d="M19.062,50.947v-4.631h1.046v4.414c0,0.85,0.364,1.252,1.18,1.252c0.778,0,1.409-0.402,2.079-1.035
				v-4.631h1.058v6.42h-1.058v-0.961c-0.56,0.547-1.361,1.082-2.407,1.082C19.731,52.857,19.062,52.164,19.062,50.947z"/>
			<path fill="#666666" d="M26.276,52.736v-6.42h1.046v1.191h0.023c0.475-0.742,1.229-1.326,2.481-1.326h0.133l-0.072,0.973
				c-0.036-0.012-0.268-0.012-0.304-0.012c-1.021,0-1.787,0.535-2.262,1.447v4.146H26.276z"/>
			<path fill="#666666" d="M30.521,51.215c0-1.301,1.107-2.225,4.293-2.674v-0.293c0-0.803-0.426-1.191-1.216-1.191
				c-0.973,0-1.69,0.426-2.322,0.975l-0.548-0.658c0.741-0.682,1.703-1.191,2.979-1.191c1.532,0,2.14,0.803,2.14,2.141v2.832
				c0,0.779,0.049,1.252,0.183,1.582h-1.069c-0.086-0.268-0.146-0.523-0.146-0.889c-0.718,0.67-1.521,0.986-2.48,0.986
				C31.227,52.834,30.521,52.25,30.521,51.215z M34.814,51.07V49.27c-2.443,0.391-3.259,0.986-3.259,1.789
				c0,0.619,0.413,0.947,1.083,0.947C33.489,52.006,34.219,51.654,34.814,51.07z"/>
			<path fill="#666666" d="M37.639,52.736v-6.42h1.058v0.959c0.56-0.547,1.362-1.094,2.407-1.094c1.229,0,1.897,0.705,1.897,1.922
				v4.633h-1.046v-4.402c0-0.852-0.364-1.252-1.179-1.252c-0.767,0-1.411,0.4-2.08,1.033v4.621H37.639z"/>
			<path fill="#666666" d="M44.427,49.525c0-2.346,1.509-3.344,2.942-3.344c1.448,0,2.129,0.852,2.518,1.799l-0.888,0.365
				c-0.316-0.826-0.814-1.277-1.654-1.277c-0.924,0-1.859,0.645-1.859,2.457c0,1.58,0.754,2.469,1.836,2.469
				c0.814,0,1.312-0.352,1.727-1.289l0.863,0.34c-0.499,1.07-1.241,1.824-2.627,1.824C45.801,52.869,44.427,51.727,44.427,49.525z"
				/>
			<path fill="#666666" d="M50.839,49.525c0-2.334,1.557-3.344,2.906-3.344c1.521,0,2.675,1.07,2.675,3.393v0.219h-4.535
				c0.036,1.447,0.875,2.225,1.933,2.225c0.925,0,1.448-0.375,1.934-1.045l0.608,0.535c-0.596,0.852-1.411,1.361-2.614,1.361
				C52.225,52.869,50.839,51.764,50.839,49.525z M55.422,48.979c-0.084-1.143-0.631-1.922-1.688-1.922
				c-0.864,0-1.68,0.596-1.824,1.922H55.422z"/>
			<path fill="#666666" d="M60.376,51.215c0-1.301,1.106-2.225,4.293-2.674v-0.293c0-0.803-0.426-1.191-1.216-1.191
				c-0.974,0-1.69,0.426-2.323,0.975l-0.547-0.658c0.742-0.682,1.702-1.191,2.979-1.191c1.532,0,2.141,0.803,2.141,2.141v2.832
				c0,0.779,0.049,1.252,0.182,1.582h-1.069c-0.085-0.268-0.146-0.523-0.146-0.889c-0.718,0.67-1.52,0.986-2.48,0.986
				C61.082,52.834,60.376,52.25,60.376,51.215z M64.669,51.07V49.27c-2.444,0.391-3.259,0.986-3.259,1.789
				c0,0.619,0.414,0.947,1.082,0.947C63.344,52.006,64.072,51.654,64.669,51.07z"/>
			<path fill="#666666" d="M67.492,52.736v-6.42h1.059v0.959c0.56-0.547,1.362-1.094,2.408-1.094c1.228,0,1.896,0.705,1.896,1.922
				v4.633H71.81v-4.402c0-0.852-0.365-1.252-1.18-1.252c-0.766,0-1.41,0.4-2.079,1.033v4.621H67.492z"/>
			<path fill="#666666" d="M74.294,49.537c0-2.236,1.167-3.355,2.735-3.355c0.778,0,1.508,0.389,1.995,0.949v-3.393h1.045v7.416
				c0,0.779,0.049,1.252,0.194,1.582h-1.095c-0.072-0.207-0.145-0.584-0.145-0.912c-0.511,0.559-1.156,1.01-2.116,1.01
				C75.437,52.834,74.294,51.775,74.294,49.537z M79.024,50.984v-2.941c-0.561-0.633-1.169-0.975-1.85-0.975
				c-1.118,0-1.836,0.791-1.836,2.48c0,1.643,0.791,2.42,1.824,2.42C77.904,51.969,78.489,51.568,79.024,50.984z"/>
			<path fill="#666666" d="M84.962,52.736v-8.998h5.399v0.984h-4.329v2.895h3.187v0.961h-3.187v4.158H84.962z"/>
			<path fill="#666666" d="M91.264,44.941V43.92h1.095v1.021H91.264z M91.287,52.736v-6.42h1.046v6.42H91.287z"/>
			<path fill="#666666" d="M94.256,52.736v-6.42h1.059v0.959c0.56-0.547,1.362-1.094,2.407-1.094c1.229,0,1.896,0.705,1.896,1.922
				v4.633h-1.046v-4.402c0-0.852-0.363-1.252-1.178-1.252c-0.767,0-1.412,0.4-2.08,1.033v4.621H94.256z"/>
			<path fill="#666666" d="M101.021,51.215c0-1.301,1.106-2.225,4.292-2.674v-0.293c0-0.803-0.425-1.191-1.216-1.191
				c-0.972,0-1.689,0.426-2.322,0.975l-0.548-0.658c0.742-0.682,1.703-1.191,2.98-1.191c1.532,0,2.14,0.803,2.14,2.141v2.832
				c0,0.779,0.048,1.252,0.183,1.582h-1.07c-0.086-0.268-0.146-0.523-0.146-0.889c-0.718,0.67-1.521,0.986-2.48,0.986
				C101.726,52.834,101.021,52.25,101.021,51.215z M105.312,51.07V49.27c-2.443,0.391-3.259,0.986-3.259,1.789
				c0,0.619,0.413,0.947,1.083,0.947C103.987,52.006,104.718,51.654,105.312,51.07z"/>
			<path fill="#666666" d="M108.138,52.736v-6.42h1.058v0.959c0.559-0.547,1.361-1.094,2.407-1.094c1.229,0,1.896,0.705,1.896,1.922
				v4.633h-1.045v-4.402c0-0.852-0.365-1.252-1.18-1.252c-0.767,0-1.411,0.4-2.079,1.033v4.621H108.138z"/>
			<path fill="#666666" d="M114.926,49.525c0-2.346,1.508-3.344,2.941-3.344c1.448,0,2.129,0.852,2.518,1.799l-0.888,0.365
				c-0.316-0.826-0.814-1.277-1.653-1.277c-0.924,0-1.86,0.645-1.86,2.457c0,1.58,0.754,2.469,1.836,2.469
				c0.814,0,1.313-0.352,1.728-1.289l0.862,0.34c-0.499,1.07-1.24,1.824-2.626,1.824C116.299,52.869,114.926,51.727,114.926,49.525z
				"/>
			<path fill="#666666" d="M121.859,44.941V43.92h1.095v1.021H121.859z M121.884,52.736v-6.42h1.047v6.42H121.884z"/>
			<path fill="#666666" d="M124.463,51.215c0-1.301,1.106-2.225,4.293-2.674v-0.293c0-0.803-0.427-1.191-1.217-1.191
				c-0.973,0-1.689,0.426-2.322,0.975l-0.547-0.658c0.742-0.682,1.703-1.191,2.979-1.191c1.532,0,2.141,0.803,2.141,2.141v2.832
				c0,0.779,0.049,1.252,0.183,1.582h-1.07c-0.085-0.268-0.146-0.523-0.146-0.889c-0.718,0.67-1.521,0.986-2.481,0.986
				C125.168,52.834,124.463,52.25,124.463,51.215z M128.756,51.07V49.27c-2.444,0.391-3.26,0.986-3.26,1.789
				c0,0.619,0.414,0.947,1.083,0.947C127.431,52.006,128.159,51.654,128.756,51.07z"/>
			<path fill="#666666" d="M131.653,52.736v-8.998h1.045v8.998H131.653z"/>
			<path fill="#666666" d="M137.2,50.559l0.899-0.4c0.45,1.203,1.338,1.799,2.554,1.799c1.265,0,2.104-0.535,2.104-1.482
				c0-0.889-0.486-1.326-2.262-1.885c-1.873-0.572-2.991-1.082-2.991-2.639c0-1.375,1.18-2.385,2.894-2.385
				c1.716,0,2.712,0.877,3.174,2.02l-0.851,0.475c-0.486-1.082-1.265-1.52-2.335-1.52c-1.143,0-1.824,0.559-1.824,1.324
				c0,0.961,0.607,1.277,2.371,1.836c1.812,0.559,2.882,1.168,2.882,2.699c0,1.484-1.301,2.506-3.209,2.506
				C138.89,52.906,137.674,51.982,137.2,50.559z"/>
			<path fill="#666666" d="M144.973,49.525c0-2.334,1.556-3.344,2.907-3.344c1.519,0,2.675,1.07,2.675,3.393v0.219h-4.537
				c0.038,1.447,0.877,2.225,1.935,2.225c0.923,0,1.446-0.375,1.933-1.045l0.609,0.535c-0.598,0.852-1.412,1.361-2.614,1.361
				C146.359,52.869,144.973,51.764,144.973,49.525z M149.557,48.979c-0.084-1.143-0.631-1.922-1.688-1.922
				c-0.865,0-1.68,0.596-1.824,1.922H149.557z"/>
			<path fill="#666666" d="M152.052,52.736v-6.42h1.046v1.191h0.024c0.475-0.742,1.229-1.326,2.481-1.326h0.135l-0.074,0.973
				c-0.036-0.012-0.268-0.012-0.304-0.012c-1.021,0-1.788,0.535-2.263,1.447v4.146H152.052z"/>
			<path fill="#666666" d="M158.657,52.76l-2.358-6.443h1.118l1.8,5.203h0.024l1.775-5.203h1.045l-2.347,6.443H158.657z"/>
			<path fill="#666666" d="M163.294,44.941V43.92h1.094v1.021H163.294z M163.318,52.736v-6.42h1.046v6.42H163.318z"/>
			<path fill="#666666" d="M165.92,49.525c0-2.346,1.509-3.344,2.944-3.344c1.445,0,2.127,0.852,2.516,1.799l-0.887,0.365
				c-0.316-0.826-0.814-1.277-1.653-1.277c-0.925,0-1.861,0.645-1.861,2.457c0,1.58,0.754,2.469,1.837,2.469
				c0.814,0,1.313-0.352,1.726-1.289l0.865,0.34c-0.499,1.07-1.241,1.824-2.629,1.824C167.296,52.869,165.92,51.727,165.92,49.525z"
				/>
			<path fill="#666666" d="M172.332,49.525c0-2.334,1.557-3.344,2.908-3.344c1.519,0,2.674,1.07,2.674,3.393v0.219h-4.536
				c0.038,1.447,0.877,2.225,1.935,2.225c0.923,0,1.446-0.375,1.933-1.045l0.609,0.535c-0.598,0.852-1.412,1.361-2.614,1.361
				C173.72,52.869,172.332,51.764,172.332,49.525z M176.917,48.979c-0.084-1.143-0.632-1.922-1.689-1.922
				c-0.864,0-1.679,0.596-1.823,1.922H176.917z"/>
			<path fill="#666666" d="M178.829,51.764l0.632-0.633c0.486,0.523,1.132,0.887,2.007,0.887c0.997,0,1.544-0.352,1.544-1.008
				c0-0.645-0.56-0.889-1.653-1.143c-1.361-0.33-2.298-0.693-2.298-1.934c0-0.975,0.851-1.752,2.25-1.752
				c1.13,0,1.86,0.365,2.455,0.924l-0.547,0.693c-0.486-0.449-1.143-0.766-1.86-0.766c-0.937,0-1.301,0.412-1.301,0.863
				c0,0.596,0.511,0.814,1.521,1.045c1.445,0.354,2.443,0.705,2.443,2.031c0,1.229-1.106,1.885-2.566,1.885
				C180.301,52.857,179.352,52.395,178.829,51.764z"/>
		</g>
		<g>
			<path fill="#85BAE1" d="M165.363,11.566c0.068,0.096,0.138,0.196,0.205,0.296l0,0c-0.061-0.091-0.123-0.179-0.187-0.269
				C165.379,11.584,165.37,11.576,165.363,11.566c-0.397-0.539-0.762-1.106-0.762-1.828c0-1.793,1.455-3.245,3.246-3.245
				c1.795,0,3.247,1.452,3.247,3.245c0,0.722-0.362,1.289-0.761,1.828c-0.003,0.01-0.012,0.019-0.019,0.027l0,0
				c1.17-1.629,2.853-2.916,4.909-3.584c0.709-0.231,1.427-0.375,2.14-0.44c-0.987-4.345-4.871-7.587-9.517-7.587
				c-4.64,0-8.525,3.242-9.515,7.587c0.716,0.065,1.433,0.209,2.142,0.44C162.518,8.671,164.193,9.949,165.363,11.566z"/>
			<path fill="#FF88A4" d="M187.519,14.271c-1.434-4.417-5.72-7.108-10.154-6.703c0.157,0.697,0.245,1.424,0.245,2.169
				c0,2.15-0.697,4.137-1.874,5.747c0.388-0.541,0.817-1.061,1.499-1.283c1.707-0.553,3.541,0.379,4.092,2.084
				c0.557,1.705-0.377,3.537-2.083,4.092c-0.684,0.221-1.337,0.049-1.976-0.158c-0.018-0.008-0.042-0.014-0.061-0.02
				c0,0-0.004,0-0.005-0.004c1.922,0.607,3.684,1.811,4.964,3.572c0.437,0.605,0.794,1.242,1.08,1.898
				C187.072,23.385,188.956,18.688,187.519,14.271z"/>
			<path fill="#FFB000" d="M175.231,26.57c0.632,0.203,1.247,0.447,1.663,1.025c1.058,1.449,0.737,3.479-0.718,4.533
				c-1.447,1.055-3.477,0.734-4.531-0.721c-0.425-0.58-0.464-1.254-0.461-1.922c0-0.02,0-0.039,0-0.061
				c0.02,2.018-0.586,4.055-1.861,5.812c-0.442,0.604-0.938,1.145-1.476,1.615c3.353,2.93,8.401,3.271,12.158,0.543
				c3.755-2.729,4.994-7.635,3.24-11.729c-0.616,0.365-1.283,0.67-1.993,0.9C179.217,27.23,177.122,27.188,175.231,26.57z"/>
			<path fill="#B9D300" d="M166.378,35.238c-1.266-1.74-1.869-3.756-1.862-5.752c0-0.047,0-0.094,0-0.145c0,0,0,0.002,0,0.004
				c0,0.021,0,0.049,0,0.072s0,0.045,0,0.068c0.004,0.668-0.036,1.342-0.461,1.922c-1.054,1.455-3.083,1.775-4.534,0.721
				c-1.449-1.055-1.772-3.084-0.717-4.533c0.396-0.547,0.969-0.797,1.565-0.992c-1.865,0.584-3.922,0.615-5.924-0.033
				c-0.707-0.232-1.379-0.537-1.991-0.902c-1.757,4.094-0.516,9.002,3.239,11.729c3.758,2.729,8.804,2.387,12.154-0.543
				C167.312,36.383,166.815,35.842,166.378,35.238z"/>
			<path fill="#FFD300" d="M158.43,20.219c0.049-0.02,0.097-0.035,0.152-0.049c-0.008,0-0.016,0.002-0.018,0.002
				c-0.026,0.012-0.049,0.02-0.074,0.027C158.47,20.205,158.45,20.211,158.43,20.219c-0.635,0.207-1.287,0.379-1.976,0.158
				c-1.703-0.555-2.635-2.387-2.083-4.092c0.554-1.705,2.389-2.637,4.092-2.084c0.683,0.223,1.114,0.742,1.503,1.289
				c0.005,0.006,0.01,0.014,0.014,0.021c-1.184-1.619-1.888-3.613-1.888-5.774c0-0.745,0.086-1.472,0.241-2.169
				c-4.433-0.405-8.721,2.286-10.153,6.703c-1.436,4.416,0.449,9.113,4.274,11.395c0.283-0.656,0.642-1.293,1.08-1.898
				C154.799,22.027,156.526,20.828,158.43,20.219z"/>
			<path fill="#7F659B" d="M175.733,15.49c1.179-1.615,1.876-3.599,1.876-5.752c0-0.745-0.088-1.472-0.245-2.169
				c-0.713,0.065-1.431,0.209-2.14,0.44c-2.561,0.831-4.545,2.624-5.678,4.849c-0.815,1.603-0.181,3.564,1.424,4.38
				c1.305,0.664,2.844,0.367,3.817-0.639C175.131,16.254,175.445,15.883,175.733,15.49z"/>
			<path fill="#EB6C0B" d="M175.209,26.564c1.899,0.623,4.001,0.668,6.044,0.004c0.71-0.23,1.379-0.535,1.993-0.9
				c-0.286-0.658-0.644-1.295-1.08-1.9c-1.582-2.18-3.901-3.51-6.369-3.902c-1.778-0.279-3.442,0.93-3.724,2.705
				c-0.23,1.449,0.533,2.824,1.786,3.436C174.294,26.227,174.748,26.412,175.209,26.564z"/>
			<path fill="#B77E0D" d="M164.516,29.486c-0.007,1.996,0.597,4.012,1.862,5.752c0.438,0.604,0.934,1.145,1.47,1.615
				c0.537-0.471,1.033-1.012,1.476-1.615c1.584-2.182,2.134-4.793,1.741-7.262c-0.28-1.775-1.948-2.984-3.726-2.707
				c-1.444,0.23-2.52,1.381-2.715,2.762C164.55,28.508,164.516,28.998,164.516,29.486z"/>
			<path fill="#88911A" d="M158.43,20.219c-1.903,0.609-3.631,1.809-4.896,3.549c-0.438,0.605-0.797,1.242-1.08,1.898
				c0.612,0.367,1.284,0.672,1.991,0.904c2.56,0.83,5.22,0.547,7.444-0.586c1.603-0.818,2.236-2.779,1.424-4.379
				c-0.663-1.305-2.092-1.973-3.464-1.732C159.367,19.951,158.891,20.066,158.43,20.219z"/>
			<path fill="#31A5A8" d="M165.363,11.566c-1.17-1.617-2.846-2.895-4.889-3.557c-0.709-0.231-1.426-0.375-2.142-0.44
				c-0.155,0.697-0.241,1.424-0.241,2.169c0,2.697,1.094,5.135,2.855,6.901c1.275,1.27,3.336,1.27,4.607,0
				c1.033-1.033,1.224-2.6,0.572-3.828C165.904,12.378,165.649,11.962,165.363,11.566z"/>
		</g>
		<g>
			<path fill="#666666" d="M5.908,9.427c0,0,0.01,4.676,0.01,4.653v13.186c0,1.221,0.01,2.426,0.031,3.613h7.643l2.115-4.371
				l0.594-0.092l-0.357,5.758l-0.097,0.113c-2.781,0-5.241,0-7.599,0H4.212H0.069L0,31.725l2.044-0.613
				c0.273-0.074,0.425-0.24,0.445-0.51c0.01-0.455,0.019-0.959,0.024-1.52c0.005-0.557,0.007-1.178,0.007-1.852V14.08
				c0-0.59-0.002-1.121-0.007-1.596C2.509,12.009,2.5,11.583,2.49,11.2c-0.012-0.302-0.142-0.47-0.397-0.561l-1.988-0.596
				L0.021,9.427H5.908z"/>
			<path fill="#666666" d="M94.079,10.946c0,0.582-0.191,1.058-0.576,1.426c-0.381,0.371-0.873,0.554-1.476,0.554
				c-0.581,0-1.052-0.171-1.42-0.511c-0.365-0.342-0.547-0.792-0.547-1.353c0-0.596,0.188-1.062,0.573-1.41
				c0.379-0.347,0.887-0.521,1.517-0.521c0.565,0,1.03,0.159,1.391,0.472C93.901,9.913,94.079,10.365,94.079,10.946z M93.892,21.43
				c0-1.717,0.031-3.285,0.102-4.717l-0.152-0.115c-1.665,0.408-3.54,0.807-5.486,1.172l0.052,0.416l2.198,0.633
				c0.043,1.252,0.068,2.623,0.068,4.102v5.51c0,1.053-0.008,3.857-0.008,3.857h5.612l-0.029-0.539l-1.911-0.561
				c-0.251-0.088-0.393-0.271-0.414-0.578c-0.021-0.52-0.031-1.463-0.031-2.82V21.43z"/>
			<path fill="#666666" d="M124.618,19.822c0-4.139-0.02-7.457-0.064-9.959l-2.228-0.658l-0.072-0.435
				c1.971-0.374,3.87-0.778,5.535-1.188l0.148,0.135c-0.063,1.793-0.095,4.295-0.095,7.482v10.576c0,2.002,0.009,3.615,0.031,4.834
				c0.034,0.324,0.187,0.516,0.459,0.596l1.769,0.535l0.071,0.547h-5.557c0,0,0.002-4.293,0.002-5.854V19.822z"/>
			<path fill="#666666" d="M32.797,31.379c-0.511-0.012-0.92-0.055-1.22-0.131c-0.306-0.072-0.531-0.209-0.685-0.396
				c-0.148-0.189-0.245-0.465-0.28-0.822c-0.036-0.355-0.048-0.83-0.039-1.42l0.084-6.859c0.013-1.66-0.469-2.932-1.438-3.812
				c-0.97-0.877-2.29-1.318-3.962-1.318c-1.607,0-3.414,0.453-5.504,1.389l0.21,0.904c1.494-0.289,2.786-0.445,3.78-0.445
				c1.247,0,2.171,0.309,2.774,0.918c0.6,0.607,0.896,1.547,0.89,2.811l-0.022,0.652c-3.137,0-5.443,0.43-6.911,1.285
				c-1.469,0.859-2.203,2.191-2.203,4c0,1.471,0.469,2.605,1.397,3.41c0.932,0.807,2.163,1.207,3.697,1.207
				c1.315,0,2.716-0.553,4.204-1.666c0.397,1.098,1.132,1.65,2.2,1.65c0.24,0,0.697-0.094,1.377-0.279
				c0.677-0.188,1.248-0.373,1.717-0.562L32.797,31.379z M27.353,30.254c-0.754,0.471-1.632,0.633-2.638,0.633
				c-0.891,0-1.598-0.248-2.116-0.744c-0.517-0.496-0.775-1.34-0.775-2.533c0-1.264,0.392-2.162,1.174-2.693
				c0.779-0.533,2.247-0.799,4.386-0.799L27.353,30.254z"/>
			<path fill="#666666" d="M70.728,31.379c-0.509-0.012-0.916-0.055-1.22-0.131c-0.302-0.072-0.528-0.209-0.678-0.396
				c-0.152-0.189-0.245-0.465-0.283-0.822c-0.036-0.355-0.049-0.83-0.04-1.42l0.085-6.859c0.01-1.66-0.47-2.932-1.442-3.812
				c-0.97-0.877-2.288-1.318-3.959-1.318c-1.609,0-3.413,0.453-5.504,1.389l0.212,0.904c1.494-0.289,2.787-0.445,3.779-0.445
				c1.245,0,2.169,0.309,2.77,0.918c0.605,0.607,0.9,1.547,0.887,2.811l-0.016,0.652c-3.137,0-5.44,0.43-6.909,1.285
				c-1.469,0.859-2.203,2.191-2.203,4c0,1.471,0.466,2.605,1.396,3.41c0.932,0.807,2.166,1.207,3.698,1.207
				c1.316,0,2.716-0.553,4.205-1.666c0.395,1.098,1.126,1.65,2.196,1.65c0.241,0,0.699-0.094,1.375-0.279
				c0.682-0.188,1.251-0.373,1.721-0.562L70.728,31.379z M65.285,30.254c-0.75,0.471-1.632,0.633-2.638,0.633
				c-0.889,0-1.595-0.248-2.112-0.744c-0.52-0.496-0.78-1.34-0.78-2.533c0-1.264,0.394-2.162,1.174-2.693
				c0.786-0.533,2.246-0.799,4.39-0.799L65.285,30.254z"/>
			<path fill="#666666" d="M122.639,31.379c-0.514-0.012-0.922-0.055-1.222-0.131c-0.304-0.072-0.531-0.209-0.685-0.396
				c-0.148-0.189-0.242-0.465-0.278-0.822c-0.036-0.355-0.052-0.83-0.04-1.42l0.085-6.859c0.011-1.66-0.47-2.932-1.44-3.812
				c-0.969-0.877-2.29-1.318-3.964-1.318c-1.606,0-3.411,0.453-5.503,1.389l0.214,0.904c1.493-0.289,2.787-0.445,3.777-0.445
				c1.246,0,2.173,0.309,2.773,0.918c0.602,0.607,0.898,1.547,0.885,2.811l-0.016,0.652c-3.137,0-5.444,0.43-6.909,1.285
				c-1.468,0.859-2.203,2.191-2.203,4c0,1.471,0.464,2.605,1.396,3.41c0.933,0.807,2.162,1.207,3.691,1.207
				c1.321,0,2.725-0.553,4.21-1.666c0.397,1.098,1.127,1.65,2.195,1.65c0.243,0,0.704-0.094,1.379-0.279
				c0.68-0.188,1.251-0.373,1.72-0.562L122.639,31.379z M117.191,30.254c-0.751,0.471-1.631,0.633-2.635,0.633
				c-0.893,0-1.597-0.248-2.114-0.744c-0.521-0.496-0.781-1.34-0.781-2.533c0-1.264,0.395-2.162,1.179-2.693
				c0.781-0.533,2.244-0.799,4.386-0.799L117.191,30.254z"/>
			<path fill="#666666" d="M78.771,32.75c2.802,0,4.972-0.783,6.498-2.346c1.524-1.57,2.288-3.701,2.288-6.395
				c0-2.189-0.594-3.967-1.784-5.336c-1.186-1.371-2.79-2.055-4.812-2.055c-1.51,0-3.071,0.574-4.688,1.73v-1.615l-0.169-0.113
				l-5.389,1.152l0.059,0.451l2.212,0.629c0.045,1.301,0.067,4.416,0.067,9.348v6.629c0,1.689,0.004,5.398,0.004,5.398h5.897
				l-0.074-0.555l-2.126-0.598c-0.277-0.068-0.426-0.246-0.448-0.594c-0.021-0.467-0.033-1.279-0.033-2.445v-3.533
				C77.135,32.668,77.968,32.75,78.771,32.75z M76.271,19.34c0.859-0.549,1.842-0.826,2.946-0.826c1.544,0,2.729,0.521,3.555,1.562
				c0.824,1.039,1.236,2.582,1.236,4.625c0,2.156-0.431,3.814-1.303,4.967c-0.866,1.16-2.151,1.736-3.866,1.736
				c-0.825,0-1.68-0.127-2.568-0.385V19.34z"/>
			<path fill="#666666" d="M107.554,30.656l0.076,0.596c-1.891,0.955-3.579,1.432-5.064,1.432c-1.208,0-2.11-0.322-2.7-0.965
				c-0.59-0.641-0.889-1.613-0.889-2.908c0-2.188,0.041-5.641,0.119-10.365l-2.285-0.654l-0.07-0.545h2.529l1.189-3.992
				c0.644-0.164,1.328-0.324,1.854-0.479l0.159,0.116c-0.036,1.333-0.05,2.576-0.05,3.728v0.609h4.759v1.49h-4.759
				c-0.069,3.746-0.103,6.771-0.103,9.07c0,1.188,0.164,1.99,0.494,2.438c0.326,0.447,0.948,0.672,1.868,0.672
				C105.414,30.898,106.376,30.818,107.554,30.656z"/>
			<path fill="#666666" d="M144.282,22.883c0-1.957-0.537-3.488-1.61-4.598c-1.075-1.107-2.572-1.666-4.502-1.666
				c-2.293,0-4.124,0.775-5.495,2.328c-1.37,1.547-2.056,3.545-2.056,5.982c0,2.457,0.733,4.373,2.204,5.754
				c1.466,1.379,3.392,2.066,5.773,2.066c0.826,0,1.724-0.125,2.688-0.379c0.964-0.252,1.904-0.672,2.815-1.254l-0.075-0.564
				c-1.167,0.17-2.266,0.254-3.289,0.254c-2.259,0-3.922-0.539-4.977-1.623c-1.062-1.084-1.593-2.885-1.593-5.398h10.063
				C144.263,23.479,144.282,23.18,144.282,22.883z M140.728,22.48h-6.576c0.081-1.287,0.441-2.385,1.08-3.289
				c0.643-0.914,1.561-1.365,2.768-1.365c0.906,0,1.588,0.322,2.043,0.965c0.458,0.646,0.686,1.717,0.686,3.215V22.48z"/>
			<path fill="#666666" d="M54.868,30.129c-1.773,0.568-3.519,0.873-5.126,0.873c-2.985,0-5.325-0.955-7.015-2.873
				s-2.531-4.479-2.531-7.695c0-3,0.735-5.438,2.205-7.315c1.476-1.878,3.499-2.818,6.081-2.818c1.085,0,2.291,0.191,3.622,0.58
				l1.204,4.327l0.526-0.076l1.018-5.339L54.74,9.659c-1.882-0.448-3.727-0.675-5.528-0.675c-3.8,0-6.887,1.091-9.256,3.277
				c-2.371,2.18-3.558,5.143-3.558,8.891c0,3.518,1.083,6.352,3.235,8.506c2.157,2.148,4.978,3.225,8.471,3.225
				c2.536,0,4.817-0.684,6.854-2.037L54.868,30.129z"/>
		</g>
	</g>
</g>
</svg>
