<?xml version="1.0" encoding="utf-8"?>
<!-- Generator: Adobe Illustrator 22.1.0, SVG Export Plug-In . SVG Version: 6.00 Build 0)  -->
<svg version="1.1" id="Layer_1" xmlns="http://www.w3.org/2000/svg" xmlns:xlink="http://www.w3.org/1999/xlink" x="0px" y="0px"
	 width="319px" height="62.3px" viewBox="0 0 319 62.3" style="enable-background:new 0 0 319 62.3;" xml:space="preserve">
<style type="text/css">
	.st0{fill:#212020;}
</style>
<path class="st0" d="M82.5,4.7c-1.6,0-2.9,0.1-3.8,0.3v33.3c0,6.5,1.5,8.2,8,8.2c8.8,0,14.9-6.2,14.9-20.3
	C101.7,12.1,94.6,4.7,82.5,4.7z M85.8,48.2c-6.4,0-7.8-0.2-10.8-0.2c-2.4,0-8.8,0.1-10.1,0.1v-1l2.3-0.4c3.2-0.5,3.8-2.2,3.8-9.9
	V14.3c0-7.8-0.6-9.4-3.8-9.9L64.8,4V3c1.3,0,6.3,0.1,8.8,0.1c2.6,0,6.5-0.1,9.5-0.1c16,0,27.3,8,27.3,22.6
	C110.5,40.5,99.7,48.2,85.8,48.2z"/>
<path class="st0" d="M121.6,10.9c-2.6,0-4.6-1.8-4.6-4.3c0-2.4,2-4.3,4.6-4.3c2.7,0,4.7,1.9,4.7,4.3C126.3,9,124.3,10.9,121.6,10.9z
	 M130.4,48.1c-1.6,0-5.2-0.1-8-0.1c-2.9,0-6.8,0.1-8.3,0.1v-1l1.2-0.2c2.7-0.4,3.2-1.4,3.2-7.7V25.6c0-3.4-0.5-4.4-2.9-5.5l-1.6-0.7
	v-0.8l11-2.4l0.9,0.5v22.5c0,6.3,0.5,7.2,3.3,7.7l1.2,0.2L130.4,48.1L130.4,48.1z"/>
<path class="st0" d="M150.7,32c-1.8,0.5-4.2,1.2-6.2,2c-3,1.4-4.7,3.2-4.7,5.7c0,3.2,2.1,5,5.2,5c1.9,0,3.8-0.9,5.7-2.4V32z
	 M162.3,47.3c-1.6,0.7-3.3,1.1-5.9,1.1c-3.1,0-5.2-1.6-5.7-4.7c-3,2.9-6.1,4.9-10.3,4.9c-3.9,0-7.5-2.4-7.5-7c0-4.3,2.6-6.4,10-8.9
	c2.4-0.8,5.2-1.6,7.7-2.2v-4.2c0-5.9-2-8-5.5-8c-1.2,0-2,0.3-2.8,0.7c-0.8,6-1.9,8.1-4.3,8.1c-1.8,0-3.4-1-3.4-3.3
	c0-2.7,6.2-7.8,13.7-7.8c7.2,0,9.8,3.1,9.8,9.8v16.9c0,2.7,0.7,3.6,2.4,3.6c0.5,0,0.9,0,1.6-0.1L162.3,47.3z"/>
<path class="st0" d="M180,48.1c-1.5,0-5.1-0.1-8-0.1c-2.9,0-6.8,0.1-8.3,0.1v-1L165,47c2.6-0.4,3.2-1.4,3.2-7.7V9.4
	c0-3.4-0.6-4.4-2.8-5.5l-1.6-0.8V2.4l11-2.4l0.9,0.6v38.7c0,6.3,0.5,7.3,3.2,7.7l1.3,0.2V48.1z"/>
<path class="st0" d="M198,17.6c-4.5,0-7,3.4-7,12.7c0,10.2,3.3,16.8,8.7,16.8c4.5,0,7-3.4,7-12.7C206.8,24.3,203.5,17.6,198,17.6z
	 M198.9,48.8c-9.1,0-15.9-5.8-15.9-16.6c0-9.1,6.6-16.2,16-16.2c9.1,0,15.9,5.8,15.9,16.6C214.8,41.8,208.2,48.8,198.9,48.8z"/>
<path class="st0" d="M231.7,17.4c-4.3,0-5.9,3.6-5.9,8.5c0,6.1,1.7,9.5,6.1,9.5c4.3,0,5.9-3.6,5.9-8.5
	C237.7,20.7,236,17.4,231.7,17.4z M235.6,47.7c-2.2-0.2-6.2-0.5-10.1-0.7c-1.7,1.6-2.2,3.1-2.2,4.9c0,4.8,4.4,8.1,10.5,8.1
	c6,0,10.8-3.6,10.8-7.9C244.6,49.5,242.7,48.2,235.6,47.7z M250.1,21h-6.8c0.9,1.4,1.4,3,1.4,4.9c0,6.9-6.7,10.7-13.3,10.7
	c-1.6,0-2.9-0.2-4.2-0.5c-2,1.3-2.4,2.2-2.4,3.1c0,1,0.7,1.4,3.9,1.6l10.3,0.7c6.2,0.5,9.3,2.7,9.3,6.8c0,8.2-8.2,13.7-18.3,13.7
	c-7.1,0-12.4-2.6-12.4-7.6c0-2.7,2-5.3,6-8.1c-2.5-0.6-4.1-2.1-4.1-4.1c0-2.2,2.3-4.5,6.2-6.8c-4.2-1.4-6.9-4.6-6.9-8.8
	c0-6.8,6.5-10.9,13.5-10.9c4.1,0,7.6,1.2,9.7,3.4l8.2-3L250.1,21L250.1,21z"/>
<path class="st0" d="M288,48.1c-2.7,0-8.4,0-11.1,0.1l-0.6-4.6c-3.5,3-6.7,4.9-10.8,4.9c-5.9,0-9-3.2-9-9.8V25.6
	c0-3.4-0.5-4.5-2.8-5.5l-1.6-0.7v-0.8l11-2.4l0.9,0.5v20.7c0,4.8,2.1,7.2,5.8,7.2c2.6,0,4.7-1,6.6-2.4V25.9c0-3.5-0.7-4.7-3.2-5.8
	l-1.6-0.7v-0.8l11.3-2.4l0.9,0.5v22.5c0,6.4,0.5,7.2,3.2,7.7l1.1,0.2V48.1z"/>
<path class="st0" d="M311.2,27.7c-0.2-6.6-2.6-10-6.4-10c-4.3,0-7,3.7-7.4,10H311.2z M297.4,29.5v0.5c0.2,9,5.1,14.5,11.6,14.5
	c3.6,0,6.1-1.3,8.8-4l0.9,0.7c-3.4,4.7-7.8,7.7-13.5,7.7c-8.3,0-14.6-5.7-14.6-15.5c0-10.6,8-17.3,15.6-17.3
	c8.5,0,12.6,4.7,12.8,13.5L297.4,29.5L297.4,29.5z"/>
<path class="st0" d="M36,3c-2.6,0-5.2,0.7-7.4,1.9c0.8,0.8,1.6,1.8,2.2,2.8c1.6-0.8,3.4-1.2,5.2-1.2c6.2,0,11.1,4.6,11.1,10.5
	c0,7.1-4.9,11.6-18,23.7l-0.8,0.8c-0.6,0.6-1.3,1.1-2.1,1.6c-1,0.6-2.2,0.8-3.4,0.4c-2-0.6-3.5-1.1-3.9-1.2c-1-1.8-1.3-8.6-1.4-11.3
	c7-1.2,12.1-7,12.1-13.8c0-2.1-0.5-4.2-1.5-6.1l-0.1-0.1c0,0,0-0.1,0-0.1c-0.1-0.3-0.3-0.5-0.4-0.7l0,0l-0.1-0.2
	c-0.7-1.1-2.1-2.8-4.4-4.4C20.7,3.8,17.8,3,14.8,3h-0.1C6.4,3,0,9.1,0,16.9c0,8,5.9,14.1,18.6,25.6l0,0c1.3,1.2,2.6,2.4,4.1,3.7
	l1.1,1c0.4,0.4,1,0.6,1.5,0.6c0.6,0,1.1-0.2,1.5-0.6l1.1-1c15.6-14,22.7-20.4,22.7-29.3C50.7,9.1,44.2,3,36,3z M15.1,27.8
	c-0.6,0.4-1,1-1.1,1.7l0,0.5c0,0.2,0,0.6,0,1.8l0.2,1.7C7.3,27,3.6,22.3,3.6,16.9c0,0,0,0,0,0l0,0l0-0.3C3.9,10.9,8.7,6.4,14.7,6.4
	c3.4,0,6.6,1.5,9,4.2c0,0,0,0,0,0c1.5,1.9,2.3,4.1,2.3,6.4c0,5.4-4.3,9.9-9.9,10.5C15.7,27.6,15.4,27.7,15.1,27.8z"/>
</svg>
