<svg id="Layer_1" data-name="Layer 1" xmlns="http://www.w3.org/2000/svg" viewBox="0 0 720.62 189.69"><defs><style>.cls-1{fill:#fff;}.cls-2{fill:#00add8;}</style></defs><title>v16_logo</title><polygon class="cls-1" points="168.44 171.3 280.28 171.3 280.28 142.61 199.7 142.61 199.7 104.66 270.62 104.66 270.62 76.17 199.7 76.17 199.7 44.43 280.28 44.43 280.28 15.74 168.44 15.74 168.44 171.3"/><path class="cls-1" d="M423.44,64.69c0-22.58-14.28-49-54.53-49H303V171.3H334.5V113.89h30.67L390,170.21l0.47,1.09h33.94l-28.22-63C413,101.23,423.44,84.69,423.44,64.69ZM334.28,43.58H368.9c15.27,0,23.27,10.61,23.27,21.11,0,13.35-8.11,20.72-22.83,20.72H334.28V43.58Z"/><path class="cls-1" d="M496.57,111.07h36.2c-0.17,10.26-2,18.79-9.33,26.53-5.18,5.38-12.57,8.21-21.43,8.21-9.19,0-18.11-3.46-23.33-9.07-7.74-8-11.51-22.15-11.51-43.13,0-13.17,1.17-31.91,11.3-42.46,5.42-5.81,14.88-9.72,23.54-9.72,10.25,0,18,2.89,22.84,8.56,3.06,3.68,5.84,7.45,6.22,12.9l0.11,1.68h31.89l-0.12-1.92c-0.77-12.19-5.48-22.6-14.42-31.79C537.36,19.49,520.5,13,502.23,13c-17.62,0-35,6.86-46.49,18.32-16.8,16.79-20.25,37.07-20.25,62.34,0,21.78,2.47,44.48,20.22,63,11.14,11.76,26,17.48,45.26,17.48h1.27c16.55-.18,30.51-8.09,37.19-16.55l2.62,13.79h21.12V84.55H496.57v26.52Z"/><polygon class="cls-1" points="702.72 44.43 702.72 15.74 590.89 15.74 590.89 171.3 702.72 171.3 702.72 142.61 622.13 142.61 622.13 104.66 693.06 104.66 693.06 76.17 622.13 76.17 622.13 44.43 702.72 44.43"/><polygon class="cls-1" points="45.07 15.74 8.08 15.74 59.24 170.06 59.64 171.3 96.62 171.3 45.48 16.98 45.07 15.74"/><polygon class="cls-2" points="82.27 123.08 81.47 125.45 118.38 125.45 153.95 18.12 154.75 15.74 117.83 15.74 82.27 123.08"/></svg>